<?xml version="1.0" encoding="utf-8"?>
<!-- Generator: Adobe Illustrator 24.1.1, SVG Export Plug-In . SVG Version: 6.00 Build 0)  -->
<svg version="1.1" id="Layer_1" xmlns="http://www.w3.org/2000/svg" xmlns:xlink="http://www.w3.org/1999/xlink" x="0px" y="0px"
	 viewBox="0 0 312.6 309" style="enable-background:new 0 0 312.6 309;" xml:space="preserve">
<style type="text/css">
	.st0{fill-rule:evenodd;clip-rule:evenodd;fill:#007DB6;}
	.st1{fill-rule:evenodd;clip-rule:evenodd;fill:#00AEEF;}
</style>
<g>
	<path class="st0" d="M56.9,137C102.8,76.4,162.5,41.2,236,31.7l22.8,96.5C206.3,81,139,84,56.9,137z"/>
	<path class="st1" d="M123.2,123.8c85.2-12.8,151.3,8.7,189.4,80.3l-54.5,59C270.9,168,222.2,123,123.2,123.8z"/>
	<path class="st0" d="M0,180l42.6,82.6C49,164.1,171.3,118,243,215.8C216.6,133,103,99.7,0,180z"/>
	<path class="st1" d="M112,63.1c-151.7-18.8-13.5,202,120.5,208.4v3.1c-60.2-0.8-162-57.4-200-149.4c-20.4-63.8,28-80.3,80.8-64.8
		L112,63.1z"/>
</g>
</svg>
